<?xml version="1.0" standalone="no"?>
<!DOCTYPE svg PUBLIC "-//W3C//DTD SVG 20010904//EN"
 "http://www.w3.org/TR/2001/REC-SVG-20010904/DTD/svg10.dtd">
<svg version="1.0" xmlns="http://www.w3.org/2000/svg"
 width="134.000000pt" height="134.000000pt" viewBox="0 0 134.000000 134.000000"
 preserveAspectRatio="xMidYMid meet">

<g transform="translate(0.000000,134.000000) scale(0.100000,-0.100000)"
fill="#000000" stroke="none">
<path d="M313 1327 c0 -13 4 -14 14 -6 9 8 50 8 149 -1 l137 -13 31 -45 c43
-61 62 -83 41 -47 -10 17 -24 39 -32 50 -7 11 -13 23 -13 28 0 10 197 -2 220
-13 8 -4 32 -5 53 -3 27 4 37 10 37 23 0 25 -34 28 -361 36 -250 6 -276 5
-276 -9z"/>
<path d="M7 1033 c-4 -3 -7 -237 -7 -520 l0 -513 175 0 176 0 -6 68 c-3 37 -8
84 -11 106 -2 21 -2 96 2 167 l7 129 79 -6 c86 -6 120 6 138 49 6 15 9 17 9 6
1 -9 -10 -28 -24 -42 -37 -36 -15 -42 26 -7 19 16 37 29 42 30 4 0 14 -18 23
-40 9 -22 19 -40 23 -41 84 -7 107 -12 119 -22 8 -6 26 -13 41 -14 26 -3 151
-52 151 -59 0 -11 -75 -281 -85 -307 -7 -16 8 -17 224 -17 l231 0 -2 402 -3
403 -55 3 c-84 5 -148 -13 -208 -59 -30 -22 -77 -50 -106 -63 -48 -21 -57 -22
-116 -12 -35 7 -65 17 -68 24 -2 7 2 12 8 12 7 0 9 8 5 21 -4 12 -3 19 2 16
11 -7 4 112 -8 136 -12 21 -52 22 -69 2 -7 -8 -18 -32 -25 -52 -7 -21 -18 -39
-24 -41 -6 -2 -8 3 -5 12 3 9 2 16 -4 16 -5 0 -10 15 -10 34 0 64 -21 93 -56
80 -17 -6 -41 -55 -50 -99 -6 -28 -5 -31 20 -30 15 0 29 -5 31 -11 2 -7 -6
-11 -18 -10 -18 1 -25 -8 -37 -42 -11 -36 -16 -41 -28 -31 -8 7 -34 14 -57 16
-52 5 -71 17 -127 83 -129 149 -229 230 -285 230 -17 0 -35 -3 -38 -7z m658
-312 c3 -5 1 -12 -5 -16 -5 -3 -10 1 -10 9 0 18 6 21 15 7z m-175 -26 c7 -8 8
-15 2 -15 -5 0 -15 7 -22 15 -7 8 -8 15 -2 15 5 0 15 -7 22 -15z m205 -20 c0
-19 -3 -35 -7 -35 -5 0 -8 -8 -8 -17 0 -9 -2 -14 -5 -11 -7 6 6 98 14 98 3 0
6 -16 6 -35z m-45 -32 c0 -29 -12 -63 -21 -63 -10 0 -12 63 -2 73 12 12 23 7
23 -10z m52 -45 c-7 -7 -12 -19 -12 -27 -1 -9 -7 -29 -16 -46 l-14 -30 5 34
c5 35 29 81 42 81 4 0 2 -5 -5 -12z"/>
<path d="M841 740 c-12 -7 -9 -10 12 -16 16 -3 31 -4 34 0 4 3 -1 6 -9 6 -9 0
-18 4 -20 10 -2 6 -9 6 -17 0z"/>
<path d="M778 280 c-21 -206 -21 -207 -4 -186 10 12 16 39 16 68 0 32 4 48 13
48 9 0 9 2 0 8 -7 4 -13 36 -15 72 l-3 65 -7 -75z"/>
<path d="M740 301 c0 -6 4 -13 10 -16 6 -3 7 1 4 9 -7 18 -14 21 -14 7z"/>
</g>
</svg>
