<?xml version="1.0" standalone="no"?>
<!DOCTYPE svg PUBLIC "-//W3C//DTD SVG 20010904//EN"
 "http://www.w3.org/TR/2001/REC-SVG-20010904/DTD/svg10.dtd">
<svg version="1.0" xmlns="http://www.w3.org/2000/svg"
 width="54.000000pt" height="54.000000pt" viewBox="0 0 54.000000 54.000000"
 preserveAspectRatio="xMidYMid meet">

<g transform="translate(0.000000,54.000000) scale(0.100000,-0.100000)"
fill="#000000" stroke="none">
<path d="M225 530 c95 -15 155 -19 155 -11 0 13 -55 21 -134 20 l-71 -1 50 -8z"/>
<path d="M0 210 l0 -210 71 0 72 0 -6 47 c-3 27 -3 70 0 96 l6 48 42 -2 c22
-2 46 1 52 4 7 4 15 1 20 -7 4 -8 34 -22 65 -31 32 -9 60 -20 63 -24 2 -5 -2
-31 -10 -57 -23 -76 -25 -74 75 -74 l90 0 0 166 0 167 -42 -6 c-22 -3 -55 -16
-71 -28 -17 -12 -46 -22 -66 -23 -33 -1 -36 1 -37 29 -3 53 -4 55 -19 55 -7 0
-18 -7 -23 -15 -7 -13 -11 -11 -21 12 -12 27 -13 27 -27 8 -8 -11 -12 -25 -10
-32 9 -23 -5 -43 -30 -43 -17 0 -45 21 -89 65 -37 38 -72 65 -84 65 -21 0 -21
-4 -21 -210z"/>
<path d="M312 70 c0 -19 2 -27 5 -17 2 9 2 25 0 35 -3 9 -5 1 -5 -18z"/>
</g>
</svg>
